# xmcd
#
# Track frame offsets: 
#        150
#        15264
#        26350
#        44762
#        56989
#        87841
#        96460
#        113949
#        133054
#        143615
#        158959
#
# Disc length: 2425 seconds
#
# Revision: 0
# Processed by: cddbd v1.5.2PL0 Copyright (c) Steve Scherf et al.
# Submitted via: ExactAudioCopy v0.99pb4
#
DISCID=9309770b
DTITLE=Tim Whitnell - In A Mind To
DYEAR=2002
DGENRE=Easy Listening
TTITLE0=Short Stories
TTITLE1=Playtime
TTITLE2=Surrealville
TTITLE3=Bingo Hill
TTITLE4=The Lawless
TTITLE5=Sprog
TTITLE6=In A Mind To
TTITLE7=The Minute After
TTITLE8=Jambo
TTITLE9=In My Time
TTITLE10=That Night
EXTD=
EXTT0=
EXTT1=
EXTT2=
EXTT3=
EXTT4=
EXTT5=
EXTT6=
EXTT7=
EXTT8=
EXTT9=
EXTT10=
PLAYORDER=
